<svg width="55" height="55" viewBox="0 0 55 55" fill="none" xmlns="http://www.w3.org/2000/svg">
<path d="M27.5 9.16666C29.9311 9.16666 32.2627 10.1324 33.9818 11.8515C35.7009 13.5706 36.6666 15.9022 36.6666 18.3333C36.6666 20.7645 35.7009 23.0961 33.9818 24.8151C32.2627 26.5342 29.9311 27.5 27.5 27.5C25.0688 27.5 22.7372 26.5342 21.0181 24.8151C19.2991 23.0961 18.3333 20.7645 18.3333 18.3333C18.3333 15.9022 19.2991 13.5706 21.0181 11.8515C22.7372 10.1324 25.0688 9.16666 27.5 9.16666ZM27.5 32.0833C37.6291 32.0833 45.8333 36.1854 45.8333 41.25V45.8333H9.16663V41.25C9.16663 36.1854 17.3708 32.0833 27.5 32.0833Z" fill="#7BAFD4"/>
</svg>
