<svg width="55" height="55" viewBox="0 0 55 55" fill="none" xmlns="http://www.w3.org/2000/svg">
<path d="M42.9688 6.875H35.1783C34.2126 5.79366 33.0295 4.92848 31.7063 4.3361C30.3831 3.74372 28.9497 3.4375 27.5 3.4375C26.0503 3.4375 24.6169 3.74372 23.2937 4.3361C21.9705 4.92848 20.7874 5.79366 19.8217 6.875H12.0312C11.1199 6.87604 10.2462 7.23854 9.60172 7.88297C8.95729 8.5274 8.59479 9.40114 8.59375 10.3125V46.4062C8.59479 47.3176 8.95729 48.1913 9.60172 48.8358C10.2462 49.4802 11.1199 49.8427 12.0312 49.8438H42.9688C43.8801 49.8427 44.7538 49.4802 45.3983 48.8358C46.0427 48.1913 46.4052 47.3176 46.4062 46.4062V10.3125C46.4052 9.40114 46.0427 8.5274 45.3983 7.88297C44.7538 7.23854 43.8801 6.87604 42.9688 6.875ZM27.5 6.875C29.3227 6.87708 31.0702 7.60208 32.3591 8.89094C33.6479 10.1798 34.3729 11.9273 34.375 13.75H20.625C20.6271 11.9273 21.3521 10.1798 22.6409 8.89094C23.9298 7.60208 25.6773 6.87708 27.5 6.875ZM34.375 34.375H20.625C20.1692 34.375 19.732 34.1939 19.4097 33.8716C19.0873 33.5493 18.9062 33.1121 18.9062 32.6562C18.9062 32.2004 19.0873 31.7632 19.4097 31.4409C19.732 31.1186 20.1692 30.9375 20.625 30.9375H34.375C34.8308 30.9375 35.268 31.1186 35.5903 31.4409C35.9127 31.7632 36.0938 32.2004 36.0938 32.6562C36.0938 33.1121 35.9127 33.5493 35.5903 33.8716C35.268 34.1939 34.8308 34.375 34.375 34.375ZM34.375 27.5H20.625C20.1692 27.5 19.732 27.3189 19.4097 26.9966C19.0873 26.6743 18.9062 26.2371 18.9062 25.7812C18.9062 25.3254 19.0873 24.8882 19.4097 24.5659C19.732 24.2436 20.1692 24.0625 20.625 24.0625H34.375C34.8308 24.0625 35.268 24.2436 35.5903 24.5659C35.9127 24.8882 36.0938 25.3254 36.0938 25.7812C36.0938 26.2371 35.9127 26.6743 35.5903 26.9966C35.268 27.3189 34.8308 27.5 34.375 27.5Z" fill="#7BAFD4"/>
</svg>
