<svg width="96" height="96" viewBox="0 0 96 96" fill="none" xmlns="http://www.w3.org/2000/svg">
<path d="M38.9998 52.5001C38.9998 53.3901 38.7359 54.2602 38.2414 55.0002C37.7469 55.7402 37.0441 56.317 36.2218 56.6576C35.3996 56.9982 34.4948 57.0873 33.6219 56.9137C32.749 56.74 31.9471 56.3114 31.3178 55.6821C30.6885 55.0528 30.2599 54.251 30.0862 53.378C29.9126 52.5051 30.0017 51.6003 30.3423 50.7781C30.6829 49.9558 31.2597 49.253 31.9997 48.7585C32.7397 48.2641 33.6098 48.0001 34.4998 48.0001C35.6932 48.0001 36.8378 48.4742 37.6818 49.3182C38.5257 50.1621 38.9998 51.3067 38.9998 52.5001ZM61.4998 48.0001C60.6098 48.0001 59.7397 48.2641 58.9997 48.7585C58.2597 49.253 57.6829 49.9558 57.3423 50.7781C57.0017 51.6003 56.9126 52.5051 57.0862 53.378C57.2599 54.251 57.6885 55.0528 58.3178 55.6821C58.9471 56.3114 59.749 56.74 60.6219 56.9137C61.4948 57.0873 62.3996 56.9982 63.2218 56.6576C64.0441 56.317 64.7469 55.7402 65.2414 55.0002C65.7358 54.2602 65.9998 53.3901 65.9998 52.5001C65.9998 51.3067 65.5257 50.1621 64.6817 49.3182C63.8378 48.4742 62.6932 48.0001 61.4998 48.0001ZM87.2623 54.0001C86.4721 54.3532 85.6152 54.5322 84.7498 54.5251C83.3803 54.5279 82.0532 54.0502 80.9998 53.1751V69.0001C80.9998 72.9784 79.4194 76.7937 76.6064 79.6067C73.7933 82.4198 69.978 84.0001 65.9998 84.0001H29.9998C26.0215 84.0001 22.2062 82.4198 19.3932 79.6067C16.5801 76.7937 14.9998 72.9784 14.9998 69.0001V53.1751C13.9463 54.0502 12.6193 54.5279 11.2498 54.5251C10.3843 54.5322 9.52746 54.3532 8.73727 54.0001C7.50106 53.4541 6.48864 52.5019 5.86795 51.3015C5.24726 50.101 5.05561 48.7245 5.32477 47.4001L11.4748 14.5876C11.6294 13.7855 11.9452 13.0231 12.403 12.3466C12.8608 11.6701 13.4512 11.0935 14.1383 10.6518C14.8255 10.21 15.5951 9.91232 16.4006 9.77668C17.2062 9.64104 18.0309 9.67028 18.8248 9.86263L39.3748 15.0001H56.6248L77.1748 9.86263C77.9687 9.67028 78.7934 9.64104 79.5989 9.77668C80.4045 9.91232 81.1741 10.21 81.8612 10.6518C82.5484 11.0935 83.1387 11.6701 83.5965 12.3466C84.0544 13.0231 84.3702 13.7855 84.5248 14.5876L90.6748 47.4001C90.9439 48.7245 90.7523 50.101 90.1316 51.3015C89.5109 52.5019 88.4985 53.4541 87.2623 54.0001V54.0001ZM74.9998 69.0001V45.7501L55.5373 21.0001H40.4623L20.9998 45.7501V69.0001C21.0096 71.384 21.961 73.6675 23.6467 75.3532C25.3324 77.0389 27.6159 77.9903 29.9998 78.0001H44.9998V73.2376L39.8623 68.1376C39.3839 67.5547 39.1394 66.8148 39.1764 66.0616C39.2134 65.3084 39.5292 64.596 40.0624 64.0628C40.5956 63.5296 41.3081 63.2137 42.0612 63.1768C42.8144 63.1398 43.5544 63.3842 44.1373 63.8626L47.9998 67.7626L51.8623 63.8626C52.4452 63.3842 53.1851 63.1398 53.9383 63.1768C54.6915 63.2137 55.4039 63.5296 55.9371 64.0628C56.4703 64.596 56.7862 65.3084 56.8231 66.0616C56.8601 66.8148 56.6157 67.5547 56.1373 68.1376L50.9998 73.2376V78.0001H65.9998C68.3837 77.9903 70.6671 77.0389 72.3528 75.3532C74.0385 73.6675 74.9899 71.384 74.9998 69.0001V69.0001Z" fill="#9D755E"/>
</svg>
