<svg width="96" height="96" viewBox="0 0 96 96" fill="none" xmlns="http://www.w3.org/2000/svg">
<path d="M87 39V57C87 58.5913 86.3679 60.1174 85.2426 61.2426C84.1174 62.3679 82.5913 63 81 63H63V81C63 82.5913 62.3679 84.1174 61.2426 85.2426C60.1174 86.3679 58.5913 87 57 87H39C37.4087 87 35.8826 86.3679 34.7574 85.2426C33.6321 84.1174 33 82.5913 33 81V63H15C13.4087 63 11.8826 62.3679 10.7574 61.2426C9.63214 60.1174 9 58.5913 9 57V39C9 37.4087 9.63214 35.8826 10.7574 34.7574C11.8826 33.6321 13.4087 33 15 33H33V15C33 13.4087 33.6321 11.8826 34.7574 10.7574C35.8826 9.63214 37.4087 9 39 9H57C58.5913 9 60.1174 9.63214 61.2426 10.7574C62.3679 11.8826 63 13.4087 63 15V33H81C82.5913 33 84.1174 33.6321 85.2426 34.7574C86.3679 35.8826 87 37.4087 87 39Z" fill="#FF1F1F"/>
</svg>
