<svg width="80" height="61" viewBox="0 0 80 61" fill="none" xmlns="http://www.w3.org/2000/svg">
<g clip-path="url(#clip0_356_38)">
<path d="M18.1819 60.0156V29.1063L8.59594 20.3366L0 15.47V54.5609C0 57.5791 2.44531 60.0156 5.45469 60.0156H18.1819V60.0156Z" fill="#4285F4"/>
<path d="M61.8184 60.0156H74.5455C77.564 60.0156 80.0002 57.57 80.0002 54.5609V15.4703L70.264 21.0444L61.8184 29.1062V60.0156V60.0156Z" fill="#34A853"/>
<path d="M18.1818 29.1063L16.8774 17.0291L18.1818 5.47L39.9999 21.8338L61.8181 5.47L63.2771 16.405L61.8181 29.1063L39.9999 45.47L18.1818 29.1063Z" fill="#EA4335"/>
<path d="M61.8184 5.47V29.1062L80.0002 15.47V8.19718C80.0002 1.45187 72.3002 -2.39344 66.9096 1.65187L61.8184 5.47Z" fill="#FBBC04"/>
<path d="M0 15.4699L8.36219 21.7418L18.1819 29.1061V5.46989L13.0906 1.65177C7.69062 -2.39386 0 1.45177 0 8.19677V15.4696V15.4699Z" fill="#C5221F"/>
</g>
<defs>
<clipPath id="clip0_356_38">
<rect width="80" height="60.3125" fill="white"/>
</clipPath>
</defs>
</svg>
