<svg width="33" height="33" viewBox="0 0 33 33" fill="none" xmlns="http://www.w3.org/2000/svg">
<path d="M27.5186 15.664H5.51855C5.25334 15.664 4.99898 15.7693 4.81145 15.9568C4.62391 16.1444 4.51855 16.3987 4.51855 16.664C4.51855 16.9292 4.62391 17.1835 4.81145 17.3711C4.99898 17.5586 5.25334 17.664 5.51855 17.664H27.5186C27.7838 17.664 28.0381 17.5586 28.2257 17.3711C28.4132 17.1835 28.5186 16.9292 28.5186 16.664C28.5186 16.3987 28.4132 16.1444 28.2257 15.9568C28.0381 15.7693 27.7838 15.664 27.5186 15.664Z" fill="white"/>
<path d="M5.51855 9.66396H27.5186C27.7838 9.66396 28.0381 9.5586 28.2257 9.37106C28.4132 9.18353 28.5186 8.92917 28.5186 8.66396C28.5186 8.39874 28.4132 8.14439 28.2257 7.95685C28.0381 7.76931 27.7838 7.66396 27.5186 7.66396H5.51855C5.25334 7.66396 4.99898 7.76931 4.81145 7.95685C4.62391 8.14439 4.51855 8.39874 4.51855 8.66396C4.51855 8.92917 4.62391 9.18353 4.81145 9.37106C4.99898 9.5586 5.25334 9.66396 5.51855 9.66396Z" fill="white"/>
<path d="M27.5186 23.664H5.51855C5.25334 23.664 4.99898 23.7693 4.81145 23.9568C4.62391 24.1444 4.51855 24.3987 4.51855 24.664C4.51855 24.9292 4.62391 25.1835 4.81145 25.3711C4.99898 25.5586 5.25334 25.664 5.51855 25.664H27.5186C27.7838 25.664 28.0381 25.5586 28.2257 25.3711C28.4132 25.1835 28.5186 24.9292 28.5186 24.664C28.5186 24.3987 28.4132 24.1444 28.2257 23.9568C28.0381 23.7693 27.7838 23.664 27.5186 23.664Z" fill="white"/>
</svg>
