<svg width="80" height="80" viewBox="0 0 80 80" fill="none" xmlns="http://www.w3.org/2000/svg">
<path d="M25.9998 6.66666H53.9998C64.6665 6.66666 73.3332 15.3333 73.3332 26V54C73.3332 59.1275 71.2963 64.045 67.6706 67.6707C64.0449 71.2964 59.1274 73.3333 53.9998 73.3333H25.9998C15.3332 73.3333 6.6665 64.6667 6.6665 54V26C6.6665 20.8725 8.7034 15.955 12.3291 12.3293C15.9548 8.70356 20.8723 6.66666 25.9998 6.66666V6.66666ZM25.3332 13.3333C22.1506 13.3333 19.0983 14.5976 16.8479 16.848C14.5975 19.0985 13.3332 22.1507 13.3332 25.3333V54.6667C13.3332 61.3 18.6998 66.6667 25.3332 66.6667H54.6665C57.8491 66.6667 60.9014 65.4024 63.1518 63.1519C65.4022 60.9015 66.6665 57.8493 66.6665 54.6667V25.3333C66.6665 18.7 61.2998 13.3333 54.6665 13.3333H25.3332ZM57.4998 18.3333C58.6049 18.3333 59.6647 18.7723 60.4461 19.5537C61.2275 20.3351 61.6665 21.3949 61.6665 22.5C61.6665 23.6051 61.2275 24.6649 60.4461 25.4463C59.6647 26.2277 58.6049 26.6667 57.4998 26.6667C56.3948 26.6667 55.335 26.2277 54.5536 25.4463C53.7722 24.6649 53.3332 23.6051 53.3332 22.5C53.3332 21.3949 53.7722 20.3351 54.5536 19.5537C55.335 18.7723 56.3948 18.3333 57.4998 18.3333ZM39.9998 23.3333C44.4201 23.3333 48.6593 25.0893 51.7849 28.2149C54.9106 31.3405 56.6665 35.5797 56.6665 40C56.6665 44.4203 54.9106 48.6595 51.7849 51.7851C48.6593 54.9107 44.4201 56.6667 39.9998 56.6667C35.5796 56.6667 31.3403 54.9107 28.2147 51.7851C25.0891 48.6595 23.3332 44.4203 23.3332 40C23.3332 35.5797 25.0891 31.3405 28.2147 28.2149C31.3403 25.0893 35.5796 23.3333 39.9998 23.3333V23.3333ZM39.9998 30C37.3477 30 34.8041 31.0536 32.9288 32.9289C31.0534 34.8043 29.9998 37.3478 29.9998 40C29.9998 42.6522 31.0534 45.1957 32.9288 47.0711C34.8041 48.9464 37.3477 50 39.9998 50C42.652 50 45.1955 48.9464 47.0709 47.0711C48.9463 45.1957 49.9998 42.6522 49.9998 40C49.9998 37.3478 48.9463 34.8043 47.0709 32.9289C45.1955 31.0536 42.652 30 39.9998 30Z" fill="url(#paint0_linear_356_54)"/>
<defs>
<linearGradient id="paint0_linear_356_54" x1="39.9998" y1="6.66666" x2="39.9998" y2="73.3333" gradientUnits="userSpaceOnUse">
<stop stop-color="#8A3AB9"/>
<stop offset="1" stop-color="#FBAD50"/>
</linearGradient>
</defs>
</svg>
