<svg width="300" height="300" viewBox="0 0 300 300" fill="none" xmlns="http://www.w3.org/2000/svg">
<path d="M150 178.125C186.244 178.125 215.625 148.744 215.625 112.5C215.625 76.2563 186.244 46.875 150 46.875C113.756 46.875 84.375 76.2563 84.375 112.5C84.375 148.744 113.756 178.125 150 178.125Z" fill="#7BAFD4"/>
<path d="M150.003 9.37521C128.757 9.33193 108.018 15.859 90.6269 28.0621C73.2356 40.2652 60.0431 57.5473 52.8568 77.5405C45.6705 97.5338 44.8421 119.26 50.4851 139.742C56.128 160.225 67.9663 178.461 84.3778 191.953V281.25C84.3683 282.85 84.7735 284.425 85.5539 285.822C86.3344 287.218 87.4634 288.389 88.831 289.219C90.1875 290.072 91.74 290.563 93.3402 290.645C94.9404 290.727 96.5349 290.397 97.9716 289.688L150.003 263.555L202.034 289.688C203.365 290.276 204.798 290.594 206.253 290.625C208.739 290.625 211.124 289.637 212.882 287.879C214.64 286.121 215.628 283.737 215.628 281.25V191.953C232.039 178.461 243.878 160.225 249.521 139.742C255.164 119.26 254.335 97.5338 247.149 77.5405C239.963 57.5473 226.77 40.2652 209.379 28.0621C191.987 15.859 171.248 9.33193 150.003 9.37521V9.37521ZM150.003 196.875C133.315 196.875 117.002 191.927 103.127 182.655C89.2512 173.384 78.4366 160.207 72.0505 144.789C65.6644 129.372 63.9935 112.407 67.2491 96.0395C70.5047 79.6723 78.5406 64.6381 90.3407 52.8381C102.141 41.038 117.175 33.0021 133.542 29.7465C149.909 26.4908 166.874 28.1617 182.292 34.5479C197.709 40.934 210.887 51.7486 220.158 65.624C229.429 79.4994 234.378 95.8124 234.378 112.5C234.347 134.868 225.447 156.311 209.631 172.128C193.814 187.945 172.371 196.844 150.003 196.875Z" fill="#7BAFD4"/>
</svg>
