<svg width="80" height="80" viewBox="0 0 80 80" fill="none" xmlns="http://www.w3.org/2000/svg">
<path d="M69.1875 17.9844L60.8672 9.67188C60.2803 9.08237 59.5827 8.61464 58.8144 8.29555C58.0462 7.97646 57.2225 7.8123 56.3906 7.8125C54.6953 7.8125 53.1016 8.47656 51.9063 9.67188L42.9531 18.625C42.3636 19.2119 41.8959 19.9095 41.5768 20.6778C41.2577 21.446 41.0936 22.2697 41.0938 23.1016C41.0938 24.7969 41.7578 26.3906 42.9531 27.5859L49.5 34.1328C47.9675 37.5106 45.8369 40.5835 43.2109 43.2031C40.5916 45.8355 37.519 47.9738 34.1406 49.5156L27.5938 42.9688C27.0068 42.3792 26.3092 41.9115 25.541 41.5924C24.7728 41.2733 23.9491 41.1092 23.1172 41.1094C21.4219 41.1094 19.8281 41.7734 18.6328 42.9688L9.67188 51.9141C9.08165 52.5021 8.61352 53.201 8.29441 53.9706C7.97531 54.7402 7.81153 55.5653 7.8125 56.3984C7.8125 58.0938 8.47657 59.6875 9.67188 60.8828L17.9766 69.1875C19.8828 71.1016 22.5156 72.1875 25.2188 72.1875C25.7891 72.1875 26.3359 72.1406 26.875 72.0469C37.4063 70.3125 47.8516 64.7109 56.2813 56.2891C64.7031 47.875 70.2969 37.4375 72.0547 26.875C72.5859 23.6484 71.5156 20.3281 69.1875 17.9844V17.9844Z" fill="white"/>
</svg>
