<svg width="96" height="96" viewBox="0 0 96 96" fill="none" xmlns="http://www.w3.org/2000/svg">
<path d="M83.737 43.4999C83.9014 44.9944 83.989 46.4964 83.9995 47.9999C83.9996 54.7015 82.1291 61.2702 78.5985 66.9664C75.0678 72.6626 70.0173 77.2602 64.0154 80.2417C58.0135 83.2231 51.2985 84.4701 44.6264 83.8421C37.9542 83.2142 31.5898 80.7363 26.2495 76.6874C35.4745 74.3624 46.312 69.7499 56.9995 63.5999C67.687 57.4499 77.0995 50.3249 83.737 43.4999ZM92.1745 22.4999C90.112 18.9374 84.562 15.5999 69.7495 19.3124C64.4093 15.2635 58.0448 12.7856 51.3727 12.1577C44.7005 11.5297 37.9855 12.7767 31.9836 15.7581C25.9817 18.7396 20.9312 23.3372 17.4006 29.0334C13.8699 34.7296 11.9994 41.2983 11.9995 47.9999C12.01 49.5034 12.0977 51.0054 12.262 52.4999C1.64951 63.4499 1.79951 69.9374 3.82451 73.4999C5.21201 75.8999 8.28701 78.2999 14.9995 78.2999C18.2204 78.2385 21.4258 77.8363 24.562 77.0999L26.2495 76.6874C24.324 75.1933 22.5413 73.5236 20.9245 71.6999C13.912 72.9374 9.93701 72.0749 9.03701 70.4999C8.47451 69.5249 8.77451 67.6874 9.89951 65.4749C11.017 63.3828 12.3627 61.4209 13.912 59.6249C15.4319 64.0723 17.815 68.1757 20.9245 71.6999L23.2495 71.2124C32.2495 69.2249 43.162 64.6499 53.9995 58.3874C64.837 52.1249 74.2495 44.9624 80.4745 38.1749C81.0429 37.6033 81.5811 37.0024 82.087 36.3749C80.5671 31.9275 78.1841 27.8241 75.0745 24.2999C77.4204 23.8424 79.8109 23.6537 82.1995 23.7374C84.6745 23.8874 86.3995 24.5249 86.962 25.4999C87.862 27.0749 86.6245 30.9374 82.087 36.3749C82.8522 38.6949 83.4044 41.0797 83.737 43.4999L84.8995 42.2624C94.387 31.9499 94.087 25.8374 92.1745 22.4999Z" fill="#61FFA0"/>
</svg>
