<svg width="55" height="55" viewBox="0 0 55 55" fill="none" xmlns="http://www.w3.org/2000/svg">
<path d="M4.58333 6.875H50.4167C52.8229 6.875 55 9.05208 55 11.4583V43.5417C55 45.9479 52.8229 48.125 50.4167 48.125H4.58333C2.17708 48.125 0 45.9479 0 43.5417V11.4583C0 9.05208 2.17708 6.875 4.58333 6.875ZM32.0833 13.75V16.0417H50.4167V13.75H32.0833ZM32.0833 18.3333V20.625H50.4167V18.3333H32.0833ZM32.0833 22.9167V25.2083H48.125V22.9167H32.0833ZM18.3333 31.8771C13.75 31.8771 4.58333 34.375 4.58333 38.9583V41.25H32.0833V38.9583C32.0833 34.375 22.9167 31.8771 18.3333 31.8771ZM18.3333 13.75C16.51 13.75 14.7613 14.4743 13.472 15.7636C12.1827 17.053 11.4583 18.8016 11.4583 20.625C11.4583 22.4484 12.1827 24.197 13.472 25.4864C14.7613 26.7757 16.51 27.5 18.3333 27.5C20.1567 27.5 21.9054 26.7757 23.1947 25.4864C24.484 24.197 25.2083 22.4484 25.2083 20.625C25.2083 18.8016 24.484 17.053 23.1947 15.7636C21.9054 14.4743 20.1567 13.75 18.3333 13.75Z" fill="#7bafd4"/>
</svg>
