<?xml version="1.0" standalone="no"?>
<!DOCTYPE svg PUBLIC "-//W3C//DTD SVG 20010904//EN"
 "http://www.w3.org/TR/2001/REC-SVG-20010904/DTD/svg10.dtd">
<svg version="1.0" xmlns="http://www.w3.org/2000/svg"
 width="260.000000pt" height="260.000000pt" viewBox="0 0 260.000000 260.000000"
 preserveAspectRatio="xMidYMid meet">
<metadata>
Created by potrace 1.14, written by Peter Selinger 2001-2017
</metadata>
<g transform="translate(0.000000,260.000000) scale(0.100000,-0.100000)"
fill="#000000" stroke="none">
<path d="M1132 2590 c-549 -78 -984 -480 -1103 -1020 -31 -138 -33 -389 -5
-520 55 -253 163 -462 333 -641 188 -197 409 -322 673 -380 138 -31 389 -33
520 -5 253 55 462 163 641 333 197 188 322 409 380 673 31 138 33 389 5 520
-55 253 -163 462 -333 641 -184 193 -399 317 -653 375 -118 28 -348 40 -458
24z m700 -932 c71 -33 133 -89 164 -150 13 -26 24 -52 24 -58 0 -6 -40 -10
-105 -10 -84 0 -107 3 -111 15 -3 8 -22 24 -42 37 -50 31 -142 31 -197 0 -99
-56 -131 -198 -73 -320 41 -87 178 -128 273 -82 43 21 95 79 95 107 0 10 -29
13 -115 13 l-115 0 0 70 0 70 203 -2 202 -3 3 -87 c2 -77 0 -93 -23 -138 -100
-198 -336 -271 -542 -170 -108 53 -176 151 -196 281 -32 206 82 392 272 446
74 21 216 11 283 -19z m-799 10 c91 -27 157 -129 142 -219 -9 -50 -54 -112
-95 -129 l-32 -13 33 -14 c71 -30 109 -92 109 -178 0 -62 -14 -97 -57 -136
-65 -61 -78 -64 -325 -67 l-228 -3 0 385 0 386 206 0 c134 0 221 -4 247 -12z"/>
<path d="M770 1450 l0 -80 79 0 c99 0 131 20 131 80 0 60 -32 80 -131 80 l-79
0 0 -80z"/>
<path d="M770 1145 l0 -85 80 0 c84 0 132 15 144 45 13 35 6 76 -19 100 -22
23 -32 25 -115 25 l-90 0 0 -85z"/>
</g>
</svg>
